<mxfile host="app.diagrams.net" agent="Mozilla/5.0 (Windows NT 10.0; Win64; x64) AppleWebKit/537.36 (KHTML, like Gecko) Chrome/140.0.0.0 Safari/537.36" version="28.2.3" pages="2">
  <diagram name="Page-1" id="rCyAOGevqVK6DVIIFY3F">
    <mxGraphModel dx="679" dy="398" grid="1" gridSize="10" guides="1" tooltips="1" connect="1" arrows="1" fold="1" page="1" pageScale="1" pageWidth="850" pageHeight="1100" math="0" shadow="0">
      <root>
        <mxCell id="0" />
        <mxCell id="1" parent="0" />
        <mxCell id="eia2CEKy0ZRSpAKBnFNo-5" value="ora" style="ellipse;shape=doubleEllipse;margin=3;whiteSpace=wrap;html=1;align=center;" parent="1" vertex="1">
          <mxGeometry x="340" y="310" width="120" height="40" as="geometry" />
        </mxCell>
        <mxCell id="eia2CEKy0ZRSpAKBnFNo-6" value="BQLOTW_orarend" style="ellipse;whiteSpace=wrap;html=1;align=center;" parent="1" vertex="1">
          <mxGeometry x="340" y="240" width="120" height="40" as="geometry" />
        </mxCell>
        <mxCell id="eia2CEKy0ZRSpAKBnFNo-9" value="id" style="shape=rhombus;perimeter=rhombusPerimeter;whiteSpace=wrap;html=1;align=center;fontStyle=4" parent="1" vertex="1">
          <mxGeometry x="60" y="500" width="80" height="40" as="geometry" />
        </mxCell>
        <mxCell id="eia2CEKy0ZRSpAKBnFNo-10" value="tipus" style="shape=rhombus;perimeter=rhombusPerimeter;whiteSpace=wrap;html=1;align=center;fontStyle=0" parent="1" vertex="1">
          <mxGeometry x="170" y="500" width="100" height="40" as="geometry" />
        </mxCell>
        <mxCell id="eia2CEKy0ZRSpAKBnFNo-11" value="idopont" style="ellipse;whiteSpace=wrap;html=1;align=center;fontStyle=0;" parent="1" vertex="1">
          <mxGeometry x="290" y="500" width="100" height="40" as="geometry" />
        </mxCell>
        <mxCell id="eia2CEKy0ZRSpAKBnFNo-12" value="nap&lt;span style=&quot;color: rgba(0, 0, 0, 0); font-family: monospace; font-size: 0px; text-align: start; text-wrap-mode: nowrap;&quot;&gt;%3CmxGraphModel%3E%3Croot%3E%3CmxCell%20id%3D%220%22%2F%3E%3CmxCell%20id%3D%221%22%20parent%3D%220%22%2F%3E%3CmxCell%20id%3D%222%22%20value%3D%22t%C3%ADpus%22%20style%3D%22ellipse%3BwhiteSpace%3Dwrap%3Bhtml%3D1%3Balign%3Dcenter%3B%22%20vertex%3D%221%22%20parent%3D%221%22%3E%3CmxGeometry%20x%3D%22410%22%20y%3D%22480%22%20width%3D%22100%22%20height%3D%2240%22%20as%3D%22geometry%22%2F%3E%3C%2FmxCell%3E%3C%2Froot%3E%3C%2FmxGraphModel%3E&lt;/span&gt;" style="ellipse;whiteSpace=wrap;html=1;align=center;fontStyle=0;" parent="1" vertex="1">
          <mxGeometry x="170" y="700" width="100" height="40" as="geometry" />
        </mxCell>
        <mxCell id="eia2CEKy0ZRSpAKBnFNo-13" value="tol" style="ellipse;whiteSpace=wrap;html=1;align=center;fontStyle=0;" parent="1" vertex="1">
          <mxGeometry x="290" y="700" width="100" height="40" as="geometry" />
        </mxCell>
        <mxCell id="eia2CEKy0ZRSpAKBnFNo-14" value="ig" style="ellipse;whiteSpace=wrap;html=1;align=center;fontStyle=0;" parent="1" vertex="1">
          <mxGeometry x="410" y="700" width="100" height="40" as="geometry" />
        </mxCell>
        <mxCell id="eia2CEKy0ZRSpAKBnFNo-15" value="helyszin" style="ellipse;whiteSpace=wrap;html=1;align=center;fontStyle=0;" parent="1" vertex="1">
          <mxGeometry x="410" y="500" width="100" height="40" as="geometry" />
        </mxCell>
        <mxCell id="eia2CEKy0ZRSpAKBnFNo-16" value="nap&lt;span style=&quot;color: rgba(0, 0, 0, 0); font-family: monospace; font-size: 0px; text-align: start; text-wrap-mode: nowrap;&quot;&gt;%3CmxGraphModel%3E%3Croot%3E%3CmxCell%20id%3D%220%22%2F%3E%3CmxCell%20id%3D%221%22%20parent%3D%220%22%2F%3E%3CmxCell%20id%3D%222%22%20value%3D%22t%C3%ADpus%22%20style%3D%22ellipse%3BwhiteSpace%3Dwrap%3Bhtml%3D1%3Balign%3Dcenter%3B%22%20vertex%3D%221%22%20parent%3D%221%22%3E%3CmxGeometry%20x%3D%22410%22%20y%3D%22480%22%20width%3D%22100%22%20height%3D%2240%22%20as%3D%22geometry%22%2F%3E%3C%2FmxCell%3E%3C%2Froot%3E%3C%2FmxGraphModel%3E&lt;/span&gt;" style="ellipse;whiteSpace=wrap;html=1;align=center;fontStyle=0;" parent="1" vertex="1">
          <mxGeometry x="530" y="500" width="100" height="40" as="geometry" />
        </mxCell>
        <mxCell id="eia2CEKy0ZRSpAKBnFNo-17" value="oktato" style="ellipse;whiteSpace=wrap;html=1;align=center;fontStyle=0;" parent="1" vertex="1">
          <mxGeometry x="650" y="500" width="100" height="40" as="geometry" />
        </mxCell>
        <mxCell id="eia2CEKy0ZRSpAKBnFNo-19" value="" style="endArrow=none;html=1;rounded=0;exitX=0.5;exitY=0;exitDx=0;exitDy=0;entryX=0.5;entryY=1;entryDx=0;entryDy=0;" parent="1" source="eia2CEKy0ZRSpAKBnFNo-9" target="eia2CEKy0ZRSpAKBnFNo-5" edge="1">
          <mxGeometry relative="1" as="geometry">
            <mxPoint x="340" y="450" as="sourcePoint" />
            <mxPoint x="500" y="450" as="targetPoint" />
          </mxGeometry>
        </mxCell>
        <mxCell id="eia2CEKy0ZRSpAKBnFNo-20" value="" style="endArrow=none;html=1;rounded=0;exitX=0.5;exitY=1;exitDx=0;exitDy=0;entryX=0.5;entryY=0;entryDx=0;entryDy=0;" parent="1" source="eia2CEKy0ZRSpAKBnFNo-5" target="eia2CEKy0ZRSpAKBnFNo-11" edge="1">
          <mxGeometry relative="1" as="geometry">
            <mxPoint x="340" y="450" as="sourcePoint" />
            <mxPoint x="500" y="450" as="targetPoint" />
          </mxGeometry>
        </mxCell>
        <mxCell id="eia2CEKy0ZRSpAKBnFNo-23" value="" style="endArrow=none;html=1;rounded=0;entryX=0.5;entryY=1;entryDx=0;entryDy=0;exitX=0.5;exitY=0;exitDx=0;exitDy=0;" parent="1" source="eia2CEKy0ZRSpAKBnFNo-10" target="eia2CEKy0ZRSpAKBnFNo-5" edge="1">
          <mxGeometry relative="1" as="geometry">
            <mxPoint x="340" y="450" as="sourcePoint" />
            <mxPoint x="500" y="450" as="targetPoint" />
          </mxGeometry>
        </mxCell>
        <mxCell id="eia2CEKy0ZRSpAKBnFNo-24" value="" style="endArrow=none;html=1;rounded=0;exitX=0.5;exitY=0;exitDx=0;exitDy=0;entryX=0.5;entryY=1;entryDx=0;entryDy=0;" parent="1" source="eia2CEKy0ZRSpAKBnFNo-15" target="eia2CEKy0ZRSpAKBnFNo-5" edge="1">
          <mxGeometry relative="1" as="geometry">
            <mxPoint x="340" y="450" as="sourcePoint" />
            <mxPoint x="520" y="260" as="targetPoint" />
          </mxGeometry>
        </mxCell>
        <mxCell id="eia2CEKy0ZRSpAKBnFNo-25" value="" style="endArrow=none;html=1;rounded=0;exitX=0.5;exitY=0;exitDx=0;exitDy=0;entryX=0.5;entryY=1;entryDx=0;entryDy=0;" parent="1" source="eia2CEKy0ZRSpAKBnFNo-16" target="eia2CEKy0ZRSpAKBnFNo-5" edge="1">
          <mxGeometry relative="1" as="geometry">
            <mxPoint x="340" y="450" as="sourcePoint" />
            <mxPoint x="240" y="330" as="targetPoint" />
          </mxGeometry>
        </mxCell>
        <mxCell id="eia2CEKy0ZRSpAKBnFNo-26" value="" style="endArrow=none;html=1;rounded=0;exitX=0.5;exitY=0;exitDx=0;exitDy=0;entryX=0.5;entryY=1;entryDx=0;entryDy=0;" parent="1" source="eia2CEKy0ZRSpAKBnFNo-17" target="eia2CEKy0ZRSpAKBnFNo-5" edge="1">
          <mxGeometry relative="1" as="geometry">
            <mxPoint x="340" y="450" as="sourcePoint" />
            <mxPoint x="240" y="330" as="targetPoint" />
          </mxGeometry>
        </mxCell>
        <mxCell id="eia2CEKy0ZRSpAKBnFNo-27" value="" style="endArrow=none;html=1;rounded=0;entryX=0.5;entryY=1;entryDx=0;entryDy=0;exitX=0.5;exitY=0;exitDx=0;exitDy=0;" parent="1" source="eia2CEKy0ZRSpAKBnFNo-12" target="eia2CEKy0ZRSpAKBnFNo-11" edge="1">
          <mxGeometry relative="1" as="geometry">
            <mxPoint x="340" y="570" as="sourcePoint" />
            <mxPoint x="500" y="570" as="targetPoint" />
          </mxGeometry>
        </mxCell>
        <mxCell id="eia2CEKy0ZRSpAKBnFNo-28" value="" style="endArrow=none;html=1;rounded=0;entryX=0.5;entryY=0;entryDx=0;entryDy=0;" parent="1" target="eia2CEKy0ZRSpAKBnFNo-13" edge="1">
          <mxGeometry relative="1" as="geometry">
            <mxPoint x="340" y="540" as="sourcePoint" />
            <mxPoint x="500" y="570" as="targetPoint" />
          </mxGeometry>
        </mxCell>
        <mxCell id="eia2CEKy0ZRSpAKBnFNo-29" value="" style="endArrow=none;html=1;rounded=0;entryX=0.5;entryY=0;entryDx=0;entryDy=0;" parent="1" target="eia2CEKy0ZRSpAKBnFNo-14" edge="1">
          <mxGeometry relative="1" as="geometry">
            <mxPoint x="340" y="540" as="sourcePoint" />
            <mxPoint x="500" y="570" as="targetPoint" />
          </mxGeometry>
        </mxCell>
        <mxCell id="eia2CEKy0ZRSpAKBnFNo-30" value="" style="endArrow=none;html=1;rounded=0;exitX=0.5;exitY=1;exitDx=0;exitDy=0;entryX=0.5;entryY=0;entryDx=0;entryDy=0;" parent="1" source="eia2CEKy0ZRSpAKBnFNo-6" target="eia2CEKy0ZRSpAKBnFNo-5" edge="1">
          <mxGeometry relative="1" as="geometry">
            <mxPoint x="440" y="510" as="sourcePoint" />
            <mxPoint x="600" y="510" as="targetPoint" />
          </mxGeometry>
        </mxCell>
        <mxCell id="eia2CEKy0ZRSpAKBnFNo-31" value="" style="rounded=0;whiteSpace=wrap;html=1;" parent="1" vertex="1">
          <mxGeometry x="200" y="770" width="40" height="60" as="geometry" />
        </mxCell>
        <mxCell id="eia2CEKy0ZRSpAKBnFNo-33" value="" style="rounded=0;whiteSpace=wrap;html=1;" parent="1" vertex="1">
          <mxGeometry x="320" y="770" width="40" height="60" as="geometry" />
        </mxCell>
        <mxCell id="eia2CEKy0ZRSpAKBnFNo-34" value="" style="rounded=0;whiteSpace=wrap;html=1;" parent="1" vertex="1">
          <mxGeometry x="440" y="770" width="40" height="60" as="geometry" />
        </mxCell>
        <mxCell id="eia2CEKy0ZRSpAKBnFNo-36" value="" style="endArrow=none;html=1;rounded=0;entryX=0.5;entryY=1;entryDx=0;entryDy=0;exitX=0.5;exitY=0;exitDx=0;exitDy=0;" parent="1" source="eia2CEKy0ZRSpAKBnFNo-34" target="eia2CEKy0ZRSpAKBnFNo-14" edge="1">
          <mxGeometry relative="1" as="geometry">
            <mxPoint x="410" y="810" as="sourcePoint" />
            <mxPoint x="570" y="810" as="targetPoint" />
          </mxGeometry>
        </mxCell>
        <mxCell id="eia2CEKy0ZRSpAKBnFNo-37" value="" style="endArrow=none;html=1;rounded=0;entryX=0.5;entryY=1;entryDx=0;entryDy=0;exitX=0.5;exitY=0;exitDx=0;exitDy=0;" parent="1" source="eia2CEKy0ZRSpAKBnFNo-33" target="eia2CEKy0ZRSpAKBnFNo-13" edge="1">
          <mxGeometry relative="1" as="geometry">
            <mxPoint x="410" y="810" as="sourcePoint" />
            <mxPoint x="570" y="810" as="targetPoint" />
          </mxGeometry>
        </mxCell>
        <mxCell id="eia2CEKy0ZRSpAKBnFNo-38" value="" style="endArrow=none;html=1;rounded=0;entryX=0.5;entryY=1;entryDx=0;entryDy=0;exitX=0.5;exitY=0;exitDx=0;exitDy=0;" parent="1" source="eia2CEKy0ZRSpAKBnFNo-31" target="eia2CEKy0ZRSpAKBnFNo-12" edge="1">
          <mxGeometry relative="1" as="geometry">
            <mxPoint x="410" y="810" as="sourcePoint" />
            <mxPoint x="570" y="810" as="targetPoint" />
          </mxGeometry>
        </mxCell>
        <mxCell id="eia2CEKy0ZRSpAKBnFNo-42" value="" style="rounded=0;whiteSpace=wrap;html=1;" parent="1" vertex="1">
          <mxGeometry x="440" y="570" width="40" height="60" as="geometry" />
        </mxCell>
        <mxCell id="eia2CEKy0ZRSpAKBnFNo-43" value="" style="endArrow=none;html=1;rounded=0;entryX=0.5;entryY=1;entryDx=0;entryDy=0;exitX=0.5;exitY=0;exitDx=0;exitDy=0;" parent="1" source="eia2CEKy0ZRSpAKBnFNo-42" edge="1">
          <mxGeometry relative="1" as="geometry">
            <mxPoint x="650" y="610" as="sourcePoint" />
            <mxPoint x="460" y="540" as="targetPoint" />
          </mxGeometry>
        </mxCell>
        <mxCell id="eia2CEKy0ZRSpAKBnFNo-44" value="" style="rounded=0;whiteSpace=wrap;html=1;" parent="1" vertex="1">
          <mxGeometry x="560" y="570" width="40" height="60" as="geometry" />
        </mxCell>
        <mxCell id="eia2CEKy0ZRSpAKBnFNo-45" value="" style="endArrow=none;html=1;rounded=0;entryX=0.5;entryY=1;entryDx=0;entryDy=0;exitX=0.5;exitY=0;exitDx=0;exitDy=0;" parent="1" source="eia2CEKy0ZRSpAKBnFNo-44" edge="1">
          <mxGeometry relative="1" as="geometry">
            <mxPoint x="770" y="610" as="sourcePoint" />
            <mxPoint x="580" y="540" as="targetPoint" />
          </mxGeometry>
        </mxCell>
        <mxCell id="eia2CEKy0ZRSpAKBnFNo-46" value="" style="rounded=0;whiteSpace=wrap;html=1;" parent="1" vertex="1">
          <mxGeometry x="680" y="570" width="40" height="60" as="geometry" />
        </mxCell>
        <mxCell id="eia2CEKy0ZRSpAKBnFNo-47" value="" style="endArrow=none;html=1;rounded=0;entryX=0.5;entryY=1;entryDx=0;entryDy=0;exitX=0.5;exitY=0;exitDx=0;exitDy=0;" parent="1" source="eia2CEKy0ZRSpAKBnFNo-46" edge="1">
          <mxGeometry relative="1" as="geometry">
            <mxPoint x="890" y="610" as="sourcePoint" />
            <mxPoint x="700" y="540" as="targetPoint" />
          </mxGeometry>
        </mxCell>
      </root>
    </mxGraphModel>
  </diagram>
  <diagram id="cosjATFGse6v8Zy2hV7a" name="Page-2">
    <mxGraphModel dx="1265" dy="835" grid="0" gridSize="10" guides="1" tooltips="1" connect="1" arrows="1" fold="1" page="0" pageScale="1" pageWidth="850" pageHeight="1100" math="0" shadow="0">
      <root>
        <mxCell id="0" />
        <mxCell id="1" parent="0" />
        <mxCell id="F1AK6ofm_JJvVSZsoa1t-1" value="ora" style="ellipse;shape=doubleEllipse;margin=3;whiteSpace=wrap;html=1;align=center;" vertex="1" parent="1">
          <mxGeometry x="692" y="87" width="120" height="40" as="geometry" />
        </mxCell>
        <mxCell id="F1AK6ofm_JJvVSZsoa1t-2" value="BQLOTW_orarend" style="ellipse;whiteSpace=wrap;html=1;align=center;" vertex="1" parent="1">
          <mxGeometry x="692" y="17" width="120" height="40" as="geometry" />
        </mxCell>
        <mxCell id="F1AK6ofm_JJvVSZsoa1t-3" value="id" style="shape=rhombus;perimeter=rhombusPerimeter;whiteSpace=wrap;html=1;align=center;fontStyle=4" vertex="1" parent="1">
          <mxGeometry x="412" y="277" width="80" height="40" as="geometry" />
        </mxCell>
        <mxCell id="F1AK6ofm_JJvVSZsoa1t-4" value="tipus" style="ellipse;whiteSpace=wrap;html=1;align=center;" vertex="1" parent="1">
          <mxGeometry x="522" y="277" width="100" height="40" as="geometry" />
        </mxCell>
        <mxCell id="F1AK6ofm_JJvVSZsoa1t-5" value="idopont" style="ellipse;shape=doubleEllipse;margin=3;whiteSpace=wrap;html=1;align=center;" vertex="1" parent="1">
          <mxGeometry x="642" y="277" width="100" height="40" as="geometry" />
        </mxCell>
        <mxCell id="F1AK6ofm_JJvVSZsoa1t-6" value="nap&lt;span style=&quot;color: rgba(0, 0, 0, 0); font-family: monospace; font-size: 0px; text-align: start; text-wrap-mode: nowrap;&quot;&gt;%3CmxGraphModel%3E%3Croot%3E%3CmxCell%20id%3D%220%22%2F%3E%3CmxCell%20id%3D%221%22%20parent%3D%220%22%2F%3E%3CmxCell%20id%3D%222%22%20value%3D%22t%C3%ADpus%22%20style%3D%22ellipse%3BwhiteSpace%3Dwrap%3Bhtml%3D1%3Balign%3Dcenter%3B%22%20vertex%3D%221%22%20parent%3D%221%22%3E%3CmxGeometry%20x%3D%22410%22%20y%3D%22480%22%20width%3D%22100%22%20height%3D%2240%22%20as%3D%22geometry%22%2F%3E%3C%2FmxCell%3E%3C%2Froot%3E%3C%2FmxGraphModel%3E&lt;/span&gt;" style="ellipse;whiteSpace=wrap;html=1;align=center;fontStyle=0;" vertex="1" parent="1">
          <mxGeometry x="522" y="477" width="100" height="40" as="geometry" />
        </mxCell>
        <mxCell id="F1AK6ofm_JJvVSZsoa1t-7" value="tol" style="ellipse;whiteSpace=wrap;html=1;align=center;fontStyle=0;" vertex="1" parent="1">
          <mxGeometry x="642" y="477" width="100" height="40" as="geometry" />
        </mxCell>
        <mxCell id="F1AK6ofm_JJvVSZsoa1t-8" value="ig" style="ellipse;whiteSpace=wrap;html=1;align=center;fontStyle=0;" vertex="1" parent="1">
          <mxGeometry x="762" y="477" width="100" height="40" as="geometry" />
        </mxCell>
        <mxCell id="F1AK6ofm_JJvVSZsoa1t-9" value="helyszin" style="ellipse;whiteSpace=wrap;html=1;align=center;fontStyle=0;" vertex="1" parent="1">
          <mxGeometry x="762" y="277" width="100" height="40" as="geometry" />
        </mxCell>
        <mxCell id="F1AK6ofm_JJvVSZsoa1t-10" value="nap&lt;span style=&quot;color: rgba(0, 0, 0, 0); font-family: monospace; font-size: 0px; text-align: start; text-wrap-mode: nowrap;&quot;&gt;%3CmxGraphModel%3E%3Croot%3E%3CmxCell%20id%3D%220%22%2F%3E%3CmxCell%20id%3D%221%22%20parent%3D%220%22%2F%3E%3CmxCell%20id%3D%222%22%20value%3D%22t%C3%ADpus%22%20style%3D%22ellipse%3BwhiteSpace%3Dwrap%3Bhtml%3D1%3Balign%3Dcenter%3B%22%20vertex%3D%221%22%20parent%3D%221%22%3E%3CmxGeometry%20x%3D%22410%22%20y%3D%22480%22%20width%3D%22100%22%20height%3D%2240%22%20as%3D%22geometry%22%2F%3E%3C%2FmxCell%3E%3C%2Froot%3E%3C%2FmxGraphModel%3E&lt;/span&gt;" style="ellipse;whiteSpace=wrap;html=1;align=center;fontStyle=0;" vertex="1" parent="1">
          <mxGeometry x="882" y="277" width="100" height="40" as="geometry" />
        </mxCell>
        <mxCell id="F1AK6ofm_JJvVSZsoa1t-11" value="oktato" style="ellipse;shape=doubleEllipse;margin=3;whiteSpace=wrap;html=1;align=center;" vertex="1" parent="1">
          <mxGeometry x="1002" y="277" width="100" height="40" as="geometry" />
        </mxCell>
        <mxCell id="F1AK6ofm_JJvVSZsoa1t-12" value="" style="endArrow=none;html=1;rounded=0;exitX=0.5;exitY=0;exitDx=0;exitDy=0;entryX=0.5;entryY=1;entryDx=0;entryDy=0;" edge="1" parent="1" source="F1AK6ofm_JJvVSZsoa1t-3" target="F1AK6ofm_JJvVSZsoa1t-1">
          <mxGeometry relative="1" as="geometry">
            <mxPoint x="692" y="227" as="sourcePoint" />
            <mxPoint x="852" y="227" as="targetPoint" />
          </mxGeometry>
        </mxCell>
        <mxCell id="F1AK6ofm_JJvVSZsoa1t-13" value="" style="endArrow=none;html=1;rounded=0;exitX=0.5;exitY=1;exitDx=0;exitDy=0;entryX=0.5;entryY=0;entryDx=0;entryDy=0;" edge="1" parent="1" source="F1AK6ofm_JJvVSZsoa1t-1" target="F1AK6ofm_JJvVSZsoa1t-5">
          <mxGeometry relative="1" as="geometry">
            <mxPoint x="692" y="227" as="sourcePoint" />
            <mxPoint x="852" y="227" as="targetPoint" />
          </mxGeometry>
        </mxCell>
        <mxCell id="F1AK6ofm_JJvVSZsoa1t-14" value="" style="endArrow=none;html=1;rounded=0;entryX=0.5;entryY=1;entryDx=0;entryDy=0;exitX=0.5;exitY=0;exitDx=0;exitDy=0;" edge="1" parent="1" source="F1AK6ofm_JJvVSZsoa1t-4" target="F1AK6ofm_JJvVSZsoa1t-1">
          <mxGeometry relative="1" as="geometry">
            <mxPoint x="692" y="227" as="sourcePoint" />
            <mxPoint x="852" y="227" as="targetPoint" />
          </mxGeometry>
        </mxCell>
        <mxCell id="F1AK6ofm_JJvVSZsoa1t-15" value="" style="endArrow=none;html=1;rounded=0;exitX=0.5;exitY=0;exitDx=0;exitDy=0;entryX=0.5;entryY=1;entryDx=0;entryDy=0;" edge="1" parent="1" source="F1AK6ofm_JJvVSZsoa1t-9" target="F1AK6ofm_JJvVSZsoa1t-1">
          <mxGeometry relative="1" as="geometry">
            <mxPoint x="692" y="227" as="sourcePoint" />
            <mxPoint x="872" y="37" as="targetPoint" />
          </mxGeometry>
        </mxCell>
        <mxCell id="F1AK6ofm_JJvVSZsoa1t-16" value="" style="endArrow=none;html=1;rounded=0;exitX=0.5;exitY=0;exitDx=0;exitDy=0;entryX=0.5;entryY=1;entryDx=0;entryDy=0;" edge="1" parent="1" source="F1AK6ofm_JJvVSZsoa1t-10" target="F1AK6ofm_JJvVSZsoa1t-1">
          <mxGeometry relative="1" as="geometry">
            <mxPoint x="692" y="227" as="sourcePoint" />
            <mxPoint x="592" y="107" as="targetPoint" />
          </mxGeometry>
        </mxCell>
        <mxCell id="F1AK6ofm_JJvVSZsoa1t-17" value="" style="endArrow=none;html=1;rounded=0;exitX=0.5;exitY=0;exitDx=0;exitDy=0;entryX=0.5;entryY=1;entryDx=0;entryDy=0;" edge="1" parent="1" source="F1AK6ofm_JJvVSZsoa1t-11" target="F1AK6ofm_JJvVSZsoa1t-1">
          <mxGeometry relative="1" as="geometry">
            <mxPoint x="692" y="227" as="sourcePoint" />
            <mxPoint x="592" y="107" as="targetPoint" />
          </mxGeometry>
        </mxCell>
        <mxCell id="F1AK6ofm_JJvVSZsoa1t-18" value="" style="endArrow=none;html=1;rounded=0;entryX=0.5;entryY=1;entryDx=0;entryDy=0;exitX=0.5;exitY=0;exitDx=0;exitDy=0;" edge="1" parent="1" source="F1AK6ofm_JJvVSZsoa1t-6" target="F1AK6ofm_JJvVSZsoa1t-5">
          <mxGeometry relative="1" as="geometry">
            <mxPoint x="692" y="347" as="sourcePoint" />
            <mxPoint x="852" y="347" as="targetPoint" />
          </mxGeometry>
        </mxCell>
        <mxCell id="F1AK6ofm_JJvVSZsoa1t-19" value="" style="endArrow=none;html=1;rounded=0;entryX=0.5;entryY=0;entryDx=0;entryDy=0;" edge="1" parent="1" target="F1AK6ofm_JJvVSZsoa1t-7">
          <mxGeometry relative="1" as="geometry">
            <mxPoint x="692" y="317" as="sourcePoint" />
            <mxPoint x="852" y="347" as="targetPoint" />
          </mxGeometry>
        </mxCell>
        <mxCell id="F1AK6ofm_JJvVSZsoa1t-20" value="" style="endArrow=none;html=1;rounded=0;entryX=0.5;entryY=0;entryDx=0;entryDy=0;" edge="1" parent="1" target="F1AK6ofm_JJvVSZsoa1t-8">
          <mxGeometry relative="1" as="geometry">
            <mxPoint x="692" y="317" as="sourcePoint" />
            <mxPoint x="852" y="347" as="targetPoint" />
          </mxGeometry>
        </mxCell>
        <mxCell id="F1AK6ofm_JJvVSZsoa1t-21" value="" style="endArrow=none;html=1;rounded=0;exitX=0.5;exitY=1;exitDx=0;exitDy=0;entryX=0.5;entryY=0;entryDx=0;entryDy=0;" edge="1" parent="1" source="F1AK6ofm_JJvVSZsoa1t-2" target="F1AK6ofm_JJvVSZsoa1t-1">
          <mxGeometry relative="1" as="geometry">
            <mxPoint x="792" y="287" as="sourcePoint" />
            <mxPoint x="952" y="287" as="targetPoint" />
          </mxGeometry>
        </mxCell>
        <mxCell id="F1AK6ofm_JJvVSZsoa1t-22" value="" style="rounded=0;whiteSpace=wrap;html=1;" vertex="1" parent="1">
          <mxGeometry x="532" y="557" width="80" height="40" as="geometry" />
        </mxCell>
        <mxCell id="F1AK6ofm_JJvVSZsoa1t-23" value="" style="rounded=0;whiteSpace=wrap;html=1;" vertex="1" parent="1">
          <mxGeometry x="652" y="557" width="80" height="40" as="geometry" />
        </mxCell>
        <mxCell id="F1AK6ofm_JJvVSZsoa1t-24" value="" style="rounded=0;whiteSpace=wrap;html=1;" vertex="1" parent="1">
          <mxGeometry x="772" y="557" width="80" height="40" as="geometry" />
        </mxCell>
        <mxCell id="F1AK6ofm_JJvVSZsoa1t-25" value="" style="endArrow=none;html=1;rounded=0;entryX=0.5;entryY=1;entryDx=0;entryDy=0;exitX=0.5;exitY=0;exitDx=0;exitDy=0;" edge="1" parent="1" source="F1AK6ofm_JJvVSZsoa1t-24" target="F1AK6ofm_JJvVSZsoa1t-8">
          <mxGeometry relative="1" as="geometry">
            <mxPoint x="762" y="587" as="sourcePoint" />
            <mxPoint x="922" y="587" as="targetPoint" />
          </mxGeometry>
        </mxCell>
        <mxCell id="F1AK6ofm_JJvVSZsoa1t-26" value="" style="endArrow=none;html=1;rounded=0;entryX=0.5;entryY=1;entryDx=0;entryDy=0;exitX=0.5;exitY=0;exitDx=0;exitDy=0;" edge="1" parent="1" source="F1AK6ofm_JJvVSZsoa1t-23" target="F1AK6ofm_JJvVSZsoa1t-7">
          <mxGeometry relative="1" as="geometry">
            <mxPoint x="762" y="587" as="sourcePoint" />
            <mxPoint x="922" y="587" as="targetPoint" />
          </mxGeometry>
        </mxCell>
        <mxCell id="F1AK6ofm_JJvVSZsoa1t-27" value="" style="endArrow=none;html=1;rounded=0;entryX=0.5;entryY=1;entryDx=0;entryDy=0;exitX=0.5;exitY=0;exitDx=0;exitDy=0;" edge="1" parent="1" source="F1AK6ofm_JJvVSZsoa1t-22" target="F1AK6ofm_JJvVSZsoa1t-6">
          <mxGeometry relative="1" as="geometry">
            <mxPoint x="762" y="587" as="sourcePoint" />
            <mxPoint x="922" y="587" as="targetPoint" />
          </mxGeometry>
        </mxCell>
        <mxCell id="F1AK6ofm_JJvVSZsoa1t-28" value="" style="rounded=0;whiteSpace=wrap;html=1;" vertex="1" parent="1">
          <mxGeometry x="532" y="357" width="80" height="40" as="geometry" />
        </mxCell>
        <mxCell id="F1AK6ofm_JJvVSZsoa1t-29" value="" style="endArrow=none;html=1;rounded=0;entryX=0.5;entryY=1;entryDx=0;entryDy=0;exitX=0.5;exitY=0;exitDx=0;exitDy=0;" edge="1" parent="1" source="F1AK6ofm_JJvVSZsoa1t-28">
          <mxGeometry relative="1" as="geometry">
            <mxPoint x="762" y="387" as="sourcePoint" />
            <mxPoint x="572" y="317" as="targetPoint" />
          </mxGeometry>
        </mxCell>
        <mxCell id="F1AK6ofm_JJvVSZsoa1t-30" value="" style="rounded=0;whiteSpace=wrap;html=1;" vertex="1" parent="1">
          <mxGeometry x="772" y="357" width="80" height="40" as="geometry" />
        </mxCell>
        <mxCell id="F1AK6ofm_JJvVSZsoa1t-31" value="" style="endArrow=none;html=1;rounded=0;entryX=0.5;entryY=1;entryDx=0;entryDy=0;exitX=0.5;exitY=0;exitDx=0;exitDy=0;" edge="1" parent="1" source="F1AK6ofm_JJvVSZsoa1t-30">
          <mxGeometry relative="1" as="geometry">
            <mxPoint x="1002" y="387" as="sourcePoint" />
            <mxPoint x="812" y="317" as="targetPoint" />
          </mxGeometry>
        </mxCell>
        <mxCell id="F1AK6ofm_JJvVSZsoa1t-32" value="" style="rounded=0;whiteSpace=wrap;html=1;" vertex="1" parent="1">
          <mxGeometry x="892" y="357" width="80" height="40" as="geometry" />
        </mxCell>
        <mxCell id="F1AK6ofm_JJvVSZsoa1t-33" value="" style="endArrow=none;html=1;rounded=0;entryX=0.5;entryY=1;entryDx=0;entryDy=0;exitX=0.5;exitY=0;exitDx=0;exitDy=0;" edge="1" parent="1" source="F1AK6ofm_JJvVSZsoa1t-32">
          <mxGeometry relative="1" as="geometry">
            <mxPoint x="1122" y="387" as="sourcePoint" />
            <mxPoint x="932" y="317" as="targetPoint" />
          </mxGeometry>
        </mxCell>
        <mxCell id="F1AK6ofm_JJvVSZsoa1t-34" value="" style="rounded=0;whiteSpace=wrap;html=1;" vertex="1" parent="1">
          <mxGeometry x="1012" y="357" width="80" height="40" as="geometry" />
        </mxCell>
        <mxCell id="F1AK6ofm_JJvVSZsoa1t-35" value="" style="endArrow=none;html=1;rounded=0;entryX=0.5;entryY=1;entryDx=0;entryDy=0;exitX=0.5;exitY=0;exitDx=0;exitDy=0;" edge="1" parent="1" source="F1AK6ofm_JJvVSZsoa1t-34">
          <mxGeometry relative="1" as="geometry">
            <mxPoint x="1242" y="387" as="sourcePoint" />
            <mxPoint x="1052" y="317" as="targetPoint" />
          </mxGeometry>
        </mxCell>
      </root>
    </mxGraphModel>
  </diagram>
</mxfile>
